<svg version="1.1" id="Layer_1" xmlns="http://www.w3.org/2000/svg" xmlns:xlink="http://www.w3.org/1999/xlink" x="0px" y="0px" viewBox="111 -24.7 190 161.6" style="enable-background:new 111 -24.7 190 161.6;" xml:space="preserve">
 <style type="text/css">
  .st0{fill:#0E497B;}
 </style>
 <title>
  NW Logo grey
 </title>
 <desc>
  Created with Sketch.
 </desc>
 <g id="Symbols">
  <g id="NAV-0614" transform="translate(-61.000000, -67.000000)">
   <g id="NEW-NAV" transform="translate(1.000000, -2.000000)">
    <g>
     <g id="Group-2" transform="translate(60.000000, 0.000000)">
      <g id="NW-Logo-grey" transform="translate(0.000000, 69.000000)">
       <g id="NW-Logo">
        <g id="Group-41" transform="translate(0.000000, 0.278910)">
         <g id="Group-38">
          <path id="Fill-36" class="st0" d="M157.6,48c14.1,0,26.5,22.7,28.6,58.1l0.4,0c2-7.1,2.8-14.7,2.6-22.2
										c0-25.8-12.2-48.6-28.5-48.6c-15.4,0-16.7,12.7-13,18.3C149.1,51.8,151.8,48,157.6,48L157.6,48z M173.3,112.3
										c0.8-3.3,1.2-5.8,1.2-10.3c0-16.1-9.7-42.5-28.3-42.5c-14.1,0-16.1,13.5-11.6,17.8c0.9-3,4-7,9.8-7
										c14.9,0,26.1,23.6,28.4,42.1H173.3z M266.2,53.8c1.5-2.1,2.1-4.7,2.1-6.5c0-6.2-5.8-12.1-14.2-12.1
										c-24.7,0-33.8,43.1-26.7,70.7h0.3c2.4-37.8,14.5-58.1,28.3-58.1C263.1,47.7,265.6,52,266.2,53.8L266.2,53.8z M267.1,59.6
										c-23.3,0-31.8,39.1-27.1,52.7h0.3c2.7-19.8,13.5-42,28-42c7.8,0,9.9,4.8,10.2,7C283.4,72,280.4,59.6,267.1,59.6L267.1,59.6
										z M211.1,125.4c-13.9,0-28.4,3.3-40.3,10.8l0.2,0.4c5.8-0.9,19.8-2.5,37.1-2.5c19,0,25.9,2.5,29.1,2.5
										c2.1,0,3.1-1.2,3.1-3.2C240.2,127.9,226.3,125.4,211.1,125.4L211.1,125.4z M211.1,110.8c-11.9,0-28.2,3.1-40.3,10.8
										l0.2,0.4c4.8-0.7,20.2-2.7,37.7-2.7c16.5,0,26,2.7,28.5,2.7c2.1,0,3.1-1.2,3.1-3.2C240.2,113.3,226.3,110.8,211.1,110.8
										L211.1,110.8z M266.2,17.1c-1.8,0.3-4.3,3-4.3,7c0,4.6,3.4,13.8,16.4,13.8c13.5,0,22.6-10,22.6-23.8
										c0-13.5-9.8-25.9-31.4-25.9c-25.7,0-58.7,22.9-58.7,78.7c0,10.6,1.3,22.3,3.9,34.8h0.5c0-68.5,25.7-100.8,53.4-100.8
										c11.9,0,18.4,7.5,18.4,15.4c0,7.2-4.3,12.4-11.1,12.4C267.5,28.7,264.9,21.5,266.2,17.1L266.2,17.1z M145.8,25.5
										c-1,1.7-3.9,4.3-9.1,4.3c-6.5,0-11.8-5.3-11.8-12.9c0-6.8,6-13.8,16.6-13.8c26.3,0,57.1,37.8,57.5,85.9
										c0,3-0.2,8.4-0.7,12.7l0.4,0.1c2.8-8.3,5-21.1,5-30.2c0-41.9-28.6-82.2-62.4-82.2c-20,0-30.2,13.3-30.2,24.9
										c0,13.3,7.8,23.3,20,23.3C140.5,37.7,145.8,30.8,145.8,25.5L145.8,25.5z M142.2-25c-2.6,0-4,1.4-4,3.3
										c0,2.4,1.5,3.6,4.6,4.9c9.3,3.8,27.2,6.1,47.4,6.1c35.7,0,72.3-5.1,88.4-11.6l-0.1-0.4c-13.2,0.9-35.8,2.4-72.1,2.4
										C157.1-20.3,146.8-25,142.2-25L142.2-25z M170.6-6.3l0,0.4c4.2,1.5,23.8,10.2,32.5,42.5c0.5,1.9,1.5,2.7,2.8,2.7
										c2.1,0,3-1.5,3-4.3c0-15.1-8.2-28.5-15.5-34.3C186.1-5.2,176.4-6.7,170.6-6.3L170.6-6.3z M219-1.5c6.2-6.5,15.3-9,24.8-8.1
										l0,0.4c-3.1,0.9-10.7,3.6-18.2,11.6C219.5,9,215.1,17,213,24.1C210.6,10.8,215,2.9,219-1.5L219-1.5z">
          </path>
         </g>
        </g>
       </g>
      </g>
     </g>
    </g>
   </g>
  </g>
 </g>
</svg>